<svg width="277" height="162" viewBox="0 0 277 162" fill="none" xmlns="http://www.w3.org/2000/svg">
<path d="M213.077 70.875H223.731V162H213.077V70.875Z" fill="#915D5D"/>
<path d="M181.115 70.875H191.769V162H181.115V70.875Z" fill="#915D5D"/>
<path d="M53.2692 70.875H63.9231V162H53.2692V70.875Z" fill="#915D5D"/>
<path d="M95.8846 70.875H106.538V162H95.8846V70.875Z" fill="#915D5D"/>
<path d="M138.5 70.875H149.154V162H138.5V70.875Z" fill="#915D5D"/>
<path d="M117.192 75.9375C117.192 106.693 90.9579 131.625 58.5962 131.625C26.2344 131.625 0 106.693 0 75.9375C0 45.1821 26.2344 20.25 58.5962 20.25C90.9579 20.25 117.192 45.1821 117.192 75.9375Z" fill="#8EE4AF"/>
<path d="M277 75.9375C277 106.693 250.766 131.625 218.404 131.625C186.042 131.625 159.808 106.693 159.808 75.9375C159.808 45.1821 186.042 20.25 218.404 20.25C250.766 20.25 277 45.1821 277 75.9375Z" fill="#8EE4AF"/>
<path d="M159.808 65.8125C159.808 96.5679 133.573 121.5 101.212 121.5C68.8498 121.5 42.6154 96.5679 42.6154 65.8125C42.6154 35.0571 68.8498 10.125 101.212 10.125C133.573 10.125 159.808 35.0571 159.808 65.8125Z" fill="#5CDB95"/>
<path d="M245.038 65.8125C245.038 96.5679 218.804 121.5 186.442 121.5C154.081 121.5 127.846 96.5679 127.846 65.8125C127.846 35.0571 154.081 10.125 186.442 10.125C218.804 10.125 245.038 35.0571 245.038 65.8125Z" fill="#5CDB95"/>
<path d="M202.423 55.6875C202.423 86.4429 176.189 111.375 143.827 111.375C111.465 111.375 85.2308 86.4429 85.2308 55.6875C85.2308 24.9321 111.465 0 143.827 0C176.189 0 202.423 24.9321 202.423 55.6875Z" fill="#379683"/>
</svg>
