<?xml version="1.0" encoding="utf-8"?>
<!-- Generator: Adobe Illustrator 19.2.1, SVG Export Plug-In . SVG Version: 6.00 Build 0)  -->
<svg version="1.1" id="layer" xmlns="http://www.w3.org/2000/svg" xmlns:xlink="http://www.w3.org/1999/xlink" x="0px" y="0px"
	 viewBox="0 0 652 652" style="enable-background:new 0 0 652 652;" xml:space="preserve">
<style type="text/css">
	.st0{fill:url(#Oval_2_);}
	.st1{fill:url(#Oval_3_);}
	.st2{fill:#0F0835;}
	.st3{fill:none;stroke:#CECDD9;stroke-width:3.3775;stroke-linecap:square;}
	.st4{fill:#2D2CE5;}
</style>
<g id="_x2660__xFE0F_-Symbols">
	<g id="V1.5_Nav" transform="translate(-85.000000, -4.000000)">
		<g id="Set-_x2B_-TokenSets" transform="translate(83.000000, 4.000000)">
			<g id="Group">
				<g id="Group-20-Copy" transform="translate(0.223589, 0.164535)">
					<g id="Group-19">
						
							<g id="Group-2-Copy" transform="translate(16.566618, 15.200993) rotate(-90.000000) translate(-16.566618, -15.200993) translate(1.566618, 0.700993)">
							
								<linearGradient id="Oval_2_" gradientUnits="userSpaceOnUse" x1="-716.7268" y1="15.4357" x2="-716.7268" y2="18.8132" gradientTransform="matrix(0 28.4549 29.6654 0 -727.0225 20416.6543)">
								<stop  offset="0" style="stop-color:#3100FF"/>
								<stop  offset="1" style="stop-color:#3100FF;stop-opacity:0"/>
							</linearGradient>
							
								<ellipse id="Oval" transform="matrix(-2.535182e-006 -1 1 -2.535182e-006 -339.4417 -198.793)" class="st0" cx="-269.1" cy="70.3" rx="48.1" ry="50.1"/>
						</g>
						
							<g id="Group-2-Copy-2" transform="translate(15.481025, 29.037061) rotate(-270.000000) translate(-15.481025, -29.037061) translate(0.481025, 14.537061)">
							
								<linearGradient id="Oval_3_" gradientUnits="userSpaceOnUse" x1="734.8137" y1="-14.1516" x2="734.8137" y2="-10.774" gradientTransform="matrix(0 -28.4549 -29.6654 0 -88.93 20820.5977)">
								<stop  offset="0" style="stop-color:#3100FF"/>
								<stop  offset="1" style="stop-color:#3100FF;stop-opacity:0"/>
							</linearGradient>
							
								<ellipse id="Oval_1_" transform="matrix(2.535182e-006 1 -1 2.535182e-006 290.4895 -371.2753)" class="st1" cx="330.9" cy="-40.4" rx="48.1" ry="50.1"/>
						</g>
					</g>
				</g>
				<path id="Set-Protocol" class="st2" d="M189,366.4c-13.2,0-23.9-3.1-32.4-7.9l7.4-22.5h0.6c4.1,16.5,17,25,28.9,25
					c6.7,0,11.7-3.9,11.7-10.1c0-3.8-1.5-7.3-8.4-10.4l-19.6-9c-11.5-5.4-17.6-15.1-17.6-25.4c0-12.8,8.1-26.9,31.7-26.9
					c10.6,0,22.9,3.4,29.8,7.3l-8.5,19.3h-0.6c-4.7-14.5-15.2-21.4-25.4-21.4c-8.6,0-11.7,4.4-11.7,8.2s2,7.5,8.2,10.6l20.1,9.5
					c13,6,16.8,13.4,16.8,23.7C220.3,353.2,207.8,366.4,189,366.4z M259.7,348.3c5.9,0,10.2-1.8,13.4-6.2l0.9,0.2
					c-3.2,18.1-15.4,23.6-24.9,23.6c-13.5,0-26.9-10.8-26.9-31.5c0-19.8,11.7-33.9,27.7-33.9c10,0,24.3,5.3,24.3,27.7h-33.9
					C242.1,341.4,249.2,348.3,259.7,348.3z M247.4,304.3c-4.8,0-7.5,6.2-7.5,16.8c0,1.2,0,2.2,0.1,3.3h14.6
					C254.6,308.9,252.1,304.3,247.4,304.3z M318.8,348l1.1,0.4c-2.6,8.7-9.7,17.4-21.9,17.4c-11.2,0-16.1-7.2-16.1-17v-43.4H276
					v-0.6c9.1-7.8,18.7-15,28-23.1h0.1v20.6H315v2.9h-10.8v40.3c0,5.1,2.2,8.4,6.4,8.4C315.1,354,317.7,351,318.8,348z"/>
			</g>
			<path id="Line" class="st3" d="M358.1,281.8v84.6"/>
			<path id="TokenSets" class="st4" d="M406.2,345v-28.8h-9.4v-5H422v5h-9.4V345H406.2z M433.6,341c4.3,0,6.8-3.2,6.8-8.2v-0.3
				c0-5.1-2.6-8.2-6.8-8.2s-6.9,3.1-6.9,8.2v0.4C426.8,337.8,429.3,341,433.6,341z M433.6,345.4c-7.3,0-12.7-5.1-12.7-12.6v-0.4
				c0-7.7,5.4-12.8,12.7-12.8c7.2,0,12.7,5.1,12.7,12.6v0.4C446.3,340.4,440.9,345.4,433.6,345.4z M451.1,345v-36.2h5.7v22.3
				l8.8-10.9h6.2l-9.6,11.3l10.4,13.4H466l-9.3-12.2V345H451.1z M485.9,345.4c-7.3,0-12.5-4.8-12.5-12.6v-0.4
				c0-7.7,5.2-12.8,12.3-12.8c6.1,0,11.7,3.6,11.7,12.5v1.7h-18.1c0.2,4.7,2.6,7.3,6.8,7.3c3.5,0,5.2-1.4,5.7-3.8h5.5
				C496.4,342.6,492.2,345.4,485.9,345.4z M479.3,330h12.3c-0.3-4.3-2.5-6.1-6-6.1C482.2,323.9,479.9,326.2,479.3,330z M502,345
				v-24.7h5.7v3.9c1.2-2.4,3.9-4.4,8-4.4c5,0,8.5,2.9,8.5,9.7V345h-5.7v-15c0-3.7-1.5-5.4-4.9-5.4c-3.2,0-5.8,2-5.8,5.9V345H502z
				 M542.3,345.4c-9.2,0-13.1-4.6-13.6-11h6.1c0.4,3.4,1.8,6.2,7.5,6.2c3.7,0,6.4-2.1,6.4-5.2s-1.6-4.3-7-5.2
				c-8.1-1.1-11.9-3.5-11.9-9.9c0-5.5,4.7-9.7,11.8-9.7c7.3,0,11.6,3.3,12.3,9.8H548c-0.6-3.5-2.6-5.1-6.5-5.1
				c-3.8,0-5.8,1.8-5.8,4.4c0,2.7,1.1,4.1,7,5c7.9,1.1,12.1,3.4,12.1,10.1C554.7,340.9,549.8,345.4,542.3,345.4z M570.8,345.4
				c-7.3,0-12.5-4.8-12.5-12.6v-0.4c0-7.7,5.2-12.8,12.3-12.8c6.1,0,11.7,3.6,11.7,12.5v1.7h-18.1c0.2,4.7,2.6,7.3,6.8,7.3
				c3.5,0,5.2-1.4,5.7-3.8h5.5C581.3,342.6,577.1,345.4,570.8,345.4z M564.2,330h12.3c-0.3-4.3-2.5-6.1-6-6.1
				C567.1,323.9,564.8,326.2,564.2,330z M595.3,345.4c-4.9,0-7.5-2.6-7.5-7.3v-13.5h-3.3v-4.3h3.3v-5.4h5.7v5.4h5.4v4.3h-5.4v13
				c0,2.2,1,3.2,2.8,3.2c1.1,0,2-0.1,2.8-0.5v4.5C598.3,345.1,597.1,345.4,595.3,345.4z M612.7,345.4c-6.4,0-10.1-2.9-10.4-8.2h5.4
				c0.3,2.5,1.6,4,4.9,4c3.1,0,4.4-1.1,4.4-3.2c0-2-1.7-2.8-5.3-3.4c-6.5-1-8.9-2.9-8.9-7.5c0-5,4.6-7.4,9.3-7.4
				c5.1,0,9.1,1.9,9.7,7.5h-5.3c-0.5-2.3-1.7-3.3-4.4-3.3c-2.5,0-3.9,1.2-3.9,2.9c0,1.8,1.2,2.5,5.1,3.2c5.8,0.9,9.3,2.3,9.3,7.6
				C622.5,342.6,619,345.4,612.7,345.4z"/>
		</g>
	</g>
</g>
</svg>
